# xmcd
#
# Track frame offsets:
#	150
#	14615
#	30817
#	47280
#	63445
#	80145
#	102162
#	116887
#	140632
#	157525
#
# Disc length: 2391 seconds
#
# Revision: 1
# Processed by: cddbd v1.5PL3 Copyright (c) Steve Scherf et al.
# Submitted via: CDex 1.50Beta5
#
DISCID=7509550a
DTITLE=The Mods - FIGHT OR FLIGHT
DYEAR=1900
DGENRE=Rock 
TTITLE0=不良少年の詩 (SONG FOR JOHN SIMON RICHIE AND US)
TTITLE1=WATCH YOUR STEP
TTITLE2=崩れ落ちる前に
TTITLE3=HEY! GIRL
TTITLE4=が・ま・ん・す・る・ん・だ
TTITLE5=TWO PUNKS
TTITLE6=NO REACTION
TTITLE7=くよくよしたって
TTITLE8=ONE MORE TRY
TTITLE9=TOMORROW NEVER COMES (WARNING FOR KIDS)
EXTD=
EXTT0=
EXTT1=
EXTT2=
EXTT3=
EXTT4=
EXTT5=
EXTT6=
EXTT7=
EXTT8=
EXTT9=
PLAYORDER=
